<?xml version="1.0" encoding="UTF-8" standalone="no"?>
<!-- Created with Inkscape (http://www.inkscape.org/) -->

<svg
   xmlns:dc="http://purl.org/dc/elements/1.1/"
   xmlns:cc="http://creativecommons.org/ns#"
   xmlns:rdf="http://www.w3.org/1999/02/22-rdf-syntax-ns#"
   xmlns:svg="http://www.w3.org/2000/svg"
   xmlns="http://www.w3.org/2000/svg"
   xmlns:sodipodi="http://sodipodi.sourceforge.net/DTD/sodipodi-0.dtd"
   xmlns:inkscape="http://www.inkscape.org/namespaces/inkscape"
   id="svg2"
   version="1.1"
   inkscape:version="0.48.4 r9939"
   width="557.5"
   height="212.5"
   xml:space="preserve"
   sodipodi:docname="dropbox-logos_dropbox-logotype-blue.eps"><metadata
     id="metadata8"><rdf:RDF><cc:Work
         rdf:about=""><dc:format>image/svg+xml</dc:format><dc:type
           rdf:resource="http://purl.org/dc/dcmitype/StillImage" /><dc:title></dc:title></cc:Work></rdf:RDF></metadata><defs
     id="defs6" /><sodipodi:namedview
     pagecolor="#ffffff"
     bordercolor="#666666"
     borderopacity="1"
     objecttolerance="10"
     gridtolerance="10"
     guidetolerance="10"
     inkscape:pageopacity="0"
     inkscape:pageshadow="2"
     inkscape:window-width="640"
     inkscape:window-height="480"
     id="namedview4"
     showgrid="false"
     inkscape:zoom="0.68340807"
     inkscape:cx="278.75"
     inkscape:cy="106.25"
     inkscape:window-x="250"
     inkscape:window-y="28"
     inkscape:window-maximized="0"
     inkscape:current-layer="g10" /><g
     id="g10"
     inkscape:groupmode="layer"
     inkscape:label="ink_ext_XXXXXX"
     transform="matrix(1.25,0,0,-1.25,0,212.5)"><g
       id="g12"
       transform="scale(0.1,0.1)"><path
         d="M 761.16,1309.79 464.863,1116.33 669.734,952.266 968.484,1136.74 761.16,1309.79"
         style="fill:#007ee5;fill-opacity:1;fill-rule:nonzero;stroke:none"
         id="path14" /><path
         d="M 464.863,788.199 761.16,594.738 968.484,767.797 669.734,952.266 464.863,788.199"
         style="fill:#007ee5;fill-opacity:1;fill-rule:nonzero;stroke:none"
         id="path16" /><path
         d="M 968.484,767.797 1175.82,594.738 1472.11,788.199 1267.24,952.266 968.484,767.797"
         style="fill:#007ee5;fill-opacity:1;fill-rule:nonzero;stroke:none"
         id="path18" /><path
         d="M 1472.11,1116.33 1175.82,1309.79 968.484,1136.74 1267.24,952.266 1472.11,1116.33"
         style="fill:#007ee5;fill-opacity:1;fill-rule:nonzero;stroke:none"
         id="path20" /><path
         d="M 969.094,730.566 761.16,558.02 l -88.972,58.089 0,-65.121 296.906,-178.058 296.916,178.058 0,65.121 -88.97,-58.089 -207.946,172.546"
         style="fill:#007ee5;fill-opacity:1;fill-rule:nonzero;stroke:none"
         id="path22" /><path
         d="m 1737.27,1026.35 19.55,0 c 46.19,0 109.61,-5.47 109.61,-165.627 0,-170.313 -64.19,-175.793 -109.61,-175.793 l -19.55,0 0,341.42 z m -114.3,-431.26 136.98,0 c 39.92,0 96.28,0 142.48,35.941 56.37,42.957 85.33,130.461 85.33,228.141 0,256.258 -162.06,257.038 -241.9,257.038 l -122.89,0 0,-521.12"
         style="fill:#007ee5;fill-opacity:1;fill-rule:nonzero;stroke:none"
         id="path24" /><path
         d="m 2027.12,980.258 0,-385.168 107.23,0 0,166.402 c 0,29.699 0,118.762 79.05,118.762 3.92,0 8.61,0 17.99,-1.563 l 0,104.692 c -5.46,1.562 -10.92,2.355 -18.78,2.355 -62.61,0 -81.4,-65.64 -90.79,-98.453 l 0,92.973 -94.7,0"
         style="fill:#007ee5;fill-opacity:1;fill-rule:nonzero;stroke:none"
         id="path26" /><path
         d="m 2403.33,913.848 c 32.9,0 45.41,-26.563 45.41,-125.785 0,-103.133 -14.09,-125.793 -45.41,-125.793 -32.09,0 -46.17,23.449 -46.17,125.793 0,94.527 10.96,125.785 45.4,125.785 l 0.77,0 z m 0,75.015 c -115.06,0 -157.32,-80.484 -157.32,-200.8 0,-124.223 45.38,-200.782 156.55,-200.782 112.72,0 157.34,77.328 157.34,200.782 0,120.316 -42.26,200.8 -156.57,200.8"
         style="fill:#007ee5;fill-opacity:1;fill-rule:nonzero;stroke:none"
         id="path28" /><path
         d="m 2697.39,825.566 c 0,34.372 0,89.051 48.53,89.051 41.49,0 44.62,-53.894 44.62,-121.867 0,-81.262 -3.9,-128.91 -47.76,-128.91 -45.39,0 -45.39,32.82 -45.39,88.285 l 0,73.441 z m -105.68,154.692 0,-515.656 105.68,0 0,158.597 c 11.74,-12.488 31.31,-33.578 73.59,-33.578 122.89,0 130.73,148.445 130.73,203.129 0,64.844 -12.52,125.016 -50.11,163.285 -18.77,18.754 -47.74,29.703 -73.57,29.703 -52.45,0 -73.6,-38.281 -86.91,-63.289 l 0,57.809 -99.41,0"
         style="fill:#007ee5;fill-opacity:1;fill-rule:nonzero;stroke:none"
         id="path30" /><path
         d="m 3039.32,844.313 c 0,19.531 0,39.062 12.55,53.917 7.82,10.149 20.34,16.387 34.43,16.387 30.53,0 46.96,-25.773 46.96,-127.336 0,-99.23 -14.85,-125.781 -48.53,-125.781 -45.41,0 -45.41,49.988 -45.41,93.758 l 0,89.055 z m -105.69,271.897 0,-521.12 63.42,0 c 8.6,27.34 12.53,35.148 20.36,50 9.38,-19.531 27.39,-57.809 89.25,-57.809 20.35,0 41.48,3.899 62.62,14.828 70.46,36.723 75.15,152.36 75.15,188.301 0,92.965 -29.74,195.328 -124.49,195.328 -46.17,0 -67.28,-25.015 -80.62,-41.425 l 0,171.897 -105.69,0"
         style="fill:#007ee5;fill-opacity:1;fill-rule:nonzero;stroke:none"
         id="path32" /><path
         d="m 3428.72,913.848 c 32.85,0 45.39,-26.563 45.39,-125.785 0,-103.133 -14.08,-125.793 -45.39,-125.793 -32.11,0 -46.22,23.449 -46.22,125.793 0,94.527 10.98,125.785 45.43,125.785 l 0.79,0 z m 0,75.015 c -115.09,0 -157.36,-80.484 -157.36,-200.8 0,-124.223 45.42,-200.782 156.57,-200.782 112.72,0 157.34,77.328 157.34,200.782 0,120.316 -42.28,200.8 -156.55,200.8"
         style="fill:#007ee5;fill-opacity:1;fill-rule:nonzero;stroke:none"
         id="path34" /><path
         d="m 3581.1,980.258 99.44,-188.293 -114.29,-196.875 93.13,0 64.99,115.613 56.35,-115.613 116.64,0 -115.07,215.633 99.4,169.535 -93.13,0 -49.32,-89.059 -41.49,89.059 -116.65,0"
         style="fill:#007ee5;fill-opacity:1;fill-rule:nonzero;stroke:none"
         id="path36" /></g></g></svg>